<svg width="7226px" height="4000px"
 viewBox="0.00 0.00 990.17 548.00" xmlns="http://www.w3.org/2000/svg" xmlns:xlink="http://www.w3.org/1999/xlink">
<g id="graph0" class="graph" transform="scale(1.0 1.0) rotate(0.0) translate(4.0 544.0)">
<title>State Transitions</title>
<polygon fill="white" stroke="transparent" points="-4,4 -4,-544 986.17,-544 986.17,4 -4,4"/>
<!-- RES_CANCEL_REQUEST_RECEIVED -->
<g id="node1" class="node">
<title>RES_CANCEL_REQUEST_RECEIVED</title>
<polygon fill="none" stroke="black" points="242.64,-180 0.12,-180 0.12,-144 242.64,-144 242.64,-180"/>
<text text-anchor="middle" x="121.38" y="-157.8" font-family="arial" font-size="14.00">RES_CANCEL_REQUEST_RECEIVED</text>
</g>
<!-- RES_CANCEL_REQUEST_RECEIVED&#45;&gt;RES_CANCEL_REQUEST_RECEIVED -->
<g id="edge2" class="edge link&#45;class">
<title>RES_CANCEL_REQUEST_RECEIVED&#45;&gt;RES_CANCEL_REQUEST_RECEIVED</title>
<g id="a_edge2"><a xlink:title="ISO18626Notification">
<path fill="none" stroke="purple" d="M242.77,-167.36C253.81,-166.25 260.76,-164.46 260.76,-162 260.76,-160.42 257.91,-159.12 252.96,-158.1"/>
<polygon fill="purple" stroke="purple" points="253.17,-154.59 242.77,-156.64 252.17,-161.52 253.17,-154.59"/>
</a>
</g>
</g>
<!-- RES_CANCEL_REQUEST_RECEIVED&#45;&gt;RES_CANCEL_REQUEST_RECEIVED -->
<g id="edge3" class="edge link&#45;class">
<title>RES_CANCEL_REQUEST_RECEIVED&#45;&gt;RES_CANCEL_REQUEST_RECEIVED</title>
<g id="a_edge3"><a xlink:title="ISO18626StatusRequest">
<path fill="none" stroke="purple" d="M242.8,-174.66C264.01,-172.97 278.76,-168.75 278.76,-162 278.76,-156.41 268.64,-152.56 253.12,-150.44"/>
<polygon fill="purple" stroke="purple" points="253.11,-146.92 242.8,-149.34 252.37,-153.88 253.11,-146.92"/>
</a>
</g>
</g>
<!-- RES_CANCELLED -->
<g id="node2" class="node">
<title>RES_CANCELLED</title>
<ellipse fill="none" stroke="red" cx="121.38" cy="-90" rx="86.2" ry="18"/>
<text text-anchor="middle" x="121.38" y="-85.8" font-family="arial" font-size="14.00">RES_CANCELLED</text>
</g>
<!-- RES_CANCEL_REQUEST_RECEIVED&#45;&gt;RES_CANCELLED -->
<g id="edge1" class="edge link&#45;class">
<title>RES_CANCEL_REQUEST_RECEIVED&#45;&gt;RES_CANCELLED</title>
<g id="a_edge1"><a xlink:title="STATUS_RES_CANCEL_REQUEST_RECEIVED_ind&#45;cancelled">
<path fill="none" stroke="red" d="M115.47,-143.7C114.67,-135.98 114.44,-126.71 114.79,-118.11"/>
<polygon fill="red" stroke="red" points="118.28,-118.32 115.49,-108.1 111.3,-117.84 118.28,-118.32"/>
</a>
</g>
</g>
<!-- RES_CANCEL_REQUEST_RECEIVED&#45;&gt;RES_CANCELLED -->
<g id="edge4" class="edge link&#45;class">
<title>RES_CANCEL_REQUEST_RECEIVED&#45;&gt;RES_CANCELLED</title>
<g id="a_edge4"><a xlink:title="supplierRespondToCancel">
<path fill="none" stroke="red" d="M127.3,-143.7C128.09,-135.98 128.32,-126.71 127.98,-118.11"/>
<polygon fill="red" stroke="red" points="131.47,-117.84 127.28,-108.1 124.48,-118.32 131.47,-117.84"/>
</a>
</g>
</g>
<!-- RES_AWAIT_SHIP -->
<g id="node3" class="node">
<title>RES_AWAIT_SHIP</title>
<polygon fill="none" stroke="black" points="567.96,-540 434.8,-540 434.8,-504 567.96,-504 567.96,-540"/>
<text text-anchor="middle" x="501.38" y="-517.8" font-family="arial" font-size="14.00">RES_AWAIT_SHIP</text>
</g>
<!-- RES_AWAIT_SHIP&#45;&gt;RES_CANCEL_REQUEST_RECEIVED -->
<g id="edge8" class="edge link&#45;class">
<title>RES_AWAIT_SHIP&#45;&gt;RES_CANCEL_REQUEST_RECEIVED</title>
<g id="a_edge8"><a xlink:title="ISO18626Cancel">
<path fill="none" stroke="purple" d="M434.78,-506.94C360.42,-491.23 250.38,-468 250.38,-468 250.38,-468 45.38,-379 45.38,-379 45.38,-379 45.38,-379 45.38,-305 45.38,-305 85.51,-230.03 107.45,-189.04"/>
<polygon fill="purple" stroke="purple" points="110.58,-190.6 112.21,-180.13 104.41,-187.29 110.58,-190.6"/>
</a>
</g>
</g>
<!-- RES_AWAIT_SHIP&#45;&gt;RES_AWAIT_SHIP -->
<g id="edge5" class="edge link&#45;class">
<title>RES_AWAIT_SHIP&#45;&gt;RES_AWAIT_SHIP</title>
<g id="a_edge5"><a xlink:title="supplierCheckInToReshare">
<path fill="none" stroke="purple" d="M568.21,-525.11C578.87,-524.65 586.17,-523.62 586.17,-522 586.17,-520.96 583.18,-520.17 578.22,-519.61"/>
<polygon fill="purple" stroke="purple" points="578.43,-516.11 568.21,-518.89 577.93,-523.1 578.43,-516.11"/>
</a>
</g>
</g>
<!-- RES_AWAIT_SHIP&#45;&gt;RES_AWAIT_SHIP -->
<g id="edge7" class="edge link&#45;class">
<title>RES_AWAIT_SHIP&#45;&gt;RES_AWAIT_SHIP</title>
<g id="a_edge7"><a xlink:title="ISO18626Notification">
<path fill="none" stroke="purple" d="M568.11,-528.74C588.35,-528.57 604.17,-526.32 604.17,-522 604.17,-518.45 593.53,-516.3 578.53,-515.55"/>
<polygon fill="purple" stroke="purple" points="578.21,-512.04 568.11,-515.26 578.01,-519.04 578.21,-512.04"/>
</a>
</g>
</g>
<!-- RES_AWAIT_SHIP&#45;&gt;RES_AWAIT_SHIP -->
<g id="edge10" class="edge link&#45;class">
<title>RES_AWAIT_SHIP&#45;&gt;RES_AWAIT_SHIP</title>
<g id="a_edge10"><a xlink:title="ISO18626StatusRequest">
<path fill="none" stroke="purple" d="M568.15,-532C597.22,-532.85 622.17,-529.51 622.17,-522 622.17,-515.37 602.73,-511.99 578.17,-511.88"/>
<polygon fill="purple" stroke="purple" points="578.11,-508.38 568.15,-512 578.19,-515.38 578.11,-508.38"/>
</a>
</g>
</g>
<!-- RES_AWAIT_SHIP&#45;&gt;RES_AWAIT_SHIP -->
<g id="edge11" class="edge link&#45;class">
<title>RES_AWAIT_SHIP&#45;&gt;RES_AWAIT_SHIP</title>
<g id="a_edge11"><a xlink:title="supplierAddCondition">
<path fill="none" stroke="purple" d="M568.14,-534.83C605.59,-537.28 640.17,-533 640.17,-522 640.17,-511.98 611.53,-507.54 578.14,-508.67"/>
<polygon fill="purple" stroke="purple" points="577.96,-505.18 568.14,-509.17 578.3,-512.17 577.96,-505.18"/>
</a>
</g>
</g>
<!-- RES_PENDING_CONDITIONAL_ANSWER -->
<g id="node4" class="node">
<title>RES_PENDING_CONDITIONAL_ANSWER</title>
<polygon fill="none" stroke="black" points="527.34,-468 259.42,-468 259.42,-432 527.34,-432 527.34,-468"/>
<text text-anchor="middle" x="393.38" y="-445.8" font-family="arial" font-size="14.00">RES_PENDING_CONDITIONAL_ANSWER</text>
</g>
<!-- RES_AWAIT_SHIP&#45;&gt;RES_PENDING_CONDITIONAL_ANSWER -->
<g id="edge12" class="edge link&#45;class">
<title>RES_AWAIT_SHIP&#45;&gt;RES_PENDING_CONDITIONAL_ANSWER</title>
<g id="a_edge12"><a xlink:title="supplierAddCondition&#45;holding">
<path fill="none" stroke="purple" d="M463.17,-503.88C447.58,-494.98 430.26,-483.97 416.54,-474.31"/>
<polygon fill="purple" stroke="purple" points="418.25,-471.22 408.09,-468.19 414.14,-476.89 418.25,-471.22"/>
</a>
</g>
</g>
<!-- RES_AWAIT_PICKING -->
<g id="node6" class="node">
<title>RES_AWAIT_PICKING</title>
<polygon fill="none" stroke="black" points="614.66,-252 456.1,-252 456.1,-216 614.66,-216 614.66,-252"/>
<text text-anchor="middle" x="535.38" y="-229.8" font-family="arial" font-size="14.00">RES_AWAIT_PICKING</text>
</g>
<!-- RES_AWAIT_SHIP&#45;&gt;RES_AWAIT_PICKING -->
<g id="edge6" class="edge link&#45;class">
<title>RES_AWAIT_SHIP&#45;&gt;RES_AWAIT_PICKING</title>
<g id="a_edge6"><a xlink:title="supplierCheckInToReshare">
<path fill="none" stroke="purple" d="M510.55,-503.94C526.99,-488.45 554.38,-468 554.38,-468 554.38,-468 554.38,-432 554.38,-432 554.38,-432 531.38,-288 531.38,-288 531.38,-288 528.02,-275.27 526.71,-262.29"/>
<polygon fill="purple" stroke="purple" points="530.19,-261.88 526.2,-252.06 523.2,-262.22 530.19,-261.88"/>
</a>
</g>
</g>
<!-- RES_ITEM_SHIPPED -->
<g id="node9" class="node">
<title>RES_ITEM_SHIPPED</title>
<polygon fill="none" stroke="black" points="729.76,-180 579,-180 579,-144 729.76,-144 729.76,-180"/>
<text text-anchor="middle" x="654.38" y="-157.8" font-family="arial" font-size="14.00">RES_ITEM_SHIPPED</text>
</g>
<!-- RES_AWAIT_SHIP&#45;&gt;RES_ITEM_SHIPPED -->
<g id="edge9" class="edge link&#45;class">
<title>RES_AWAIT_SHIP&#45;&gt;RES_ITEM_SHIPPED</title>
<g id="a_edge9"><a xlink:title="supplierMarkShipped">
<path fill="none" stroke="purple" d="M534.54,-503.94C564.65,-488.45 604.38,-468 604.38,-468 604.38,-468 732.38,-379 732.38,-379 732.38,-379 732.38,-379 732.38,-305 732.38,-305 713.38,-216 713.38,-216 713.38,-216 696.57,-200.9 680.9,-186.82"/>
<polygon fill="purple" stroke="purple" points="683.15,-184.14 673.37,-180.06 678.47,-189.35 683.15,-184.14"/>
</a>
</g>
</g>
<!-- RES_PENDING_CONDITIONAL_ANSWER&#45;&gt;RES_CANCEL_REQUEST_RECEIVED -->
<g id="edge18" class="edge link&#45;class">
<title>RES_PENDING_CONDITIONAL_ANSWER&#45;&gt;RES_CANCEL_REQUEST_RECEIVED</title>
<g id="a_edge18"><a xlink:title="ISO18626Cancel">
<path fill="none" stroke="purple" d="M337.05,-431.94C285.89,-416.45 218.38,-396 218.38,-396 218.38,-396 159.38,-324 159.38,-324 159.38,-324 135.38,-252 135.38,-252 135.38,-252 129.79,-216.48 125.68,-190.32"/>
<polygon fill="purple" stroke="purple" points="129.09,-189.49 124.08,-180.16 122.18,-190.58 129.09,-189.49"/>
</a>
</g>
</g>
<!-- RES_PENDING_CONDITIONAL_ANSWER&#45;&gt;RES_AWAIT_SHIP -->
<g id="edge16" class="edge link&#45;class">
<title>RES_PENDING_CONDITIONAL_ANSWER&#45;&gt;RES_AWAIT_SHIP</title>
<g id="a_edge16"><a xlink:title="ISO18626Notification&#45;conditionsAgreed&#45;saved">
<path fill="none" stroke="purple" d="M419.9,-468.19C433.91,-477.27 451.28,-488.53 466.38,-498.31"/>
<polygon fill="purple" stroke="purple" points="464.67,-501.37 474.96,-503.88 468.47,-495.5 464.67,-501.37"/>
</a>
</g>
</g>
<!-- RES_PENDING_CONDITIONAL_ANSWER&#45;&gt;RES_AWAIT_SHIP -->
<g id="edge22" class="edge link&#45;class">
<title>RES_PENDING_CONDITIONAL_ANSWER&#45;&gt;RES_AWAIT_SHIP</title>
<g id="a_edge22"><a xlink:title="supplierMarkConditionsAgreed&#45;saved">
<path fill="none" stroke="purple" d="M431.56,-468.1C447.1,-476.97 464.37,-487.94 478.08,-497.59"/>
<polygon fill="purple" stroke="purple" points="476.36,-500.67 486.52,-503.7 480.47,-495 476.36,-500.67"/>
</a>
</g>
</g>
<!-- RES_PENDING_CONDITIONAL_ANSWER&#45;&gt;RES_PENDING_CONDITIONAL_ANSWER -->
<g id="edge17" class="edge link&#45;class">
<title>RES_PENDING_CONDITIONAL_ANSWER&#45;&gt;RES_PENDING_CONDITIONAL_ANSWER</title>
<g id="a_edge17"><a xlink:title="ISO18626Notification">
<path fill="none" stroke="purple" d="M527.76,-455.17C538.63,-454.04 545.36,-452.32 545.36,-450 545.36,-448.51 542.6,-447.27 537.75,-446.28"/>
<polygon fill="purple" stroke="purple" points="538.16,-442.8 527.76,-444.83 537.16,-449.73 538.16,-442.8"/>
</a>
</g>
</g>
<!-- RES_PENDING_CONDITIONAL_ANSWER&#45;&gt;RES_PENDING_CONDITIONAL_ANSWER -->
<g id="edge24" class="edge link&#45;class">
<title>RES_PENDING_CONDITIONAL_ANSWER&#45;&gt;RES_PENDING_CONDITIONAL_ANSWER</title>
<g id="a_edge24"><a xlink:title="ISO18626StatusRequest">
<path fill="none" stroke="purple" d="M527.34,-462.43C548.72,-460.61 563.36,-456.47 563.36,-450 563.36,-444.59 553.13,-440.81 537.29,-438.65"/>
<polygon fill="purple" stroke="purple" points="537.66,-435.17 527.34,-437.57 536.91,-442.13 537.66,-435.17"/>
</a>
</g>
</g>
<!-- RES_NEW_AWAIT_PULL_SLIP -->
<g id="node5" class="node">
<title>RES_NEW_AWAIT_PULL_SLIP</title>
<polygon fill="none" stroke="black" points="397.05,-324 187.71,-324 187.71,-288 397.05,-288 397.05,-324"/>
<text text-anchor="middle" x="292.38" y="-301.8" font-family="arial" font-size="14.00">RES_NEW_AWAIT_PULL_SLIP</text>
</g>
<!-- RES_PENDING_CONDITIONAL_ANSWER&#45;&gt;RES_NEW_AWAIT_PULL_SLIP -->
<g id="edge15" class="edge link&#45;class">
<title>RES_PENDING_CONDITIONAL_ANSWER&#45;&gt;RES_NEW_AWAIT_PULL_SLIP</title>
<g id="a_edge15"><a xlink:title="ISO18626Notification&#45;conditionsAgreed&#45;saved">
<path fill="none" stroke="purple" d="M374.93,-431.84C357.5,-405.98 338.38,-360 338.38,-360 338.38,-360 320.81,-345.44 306.66,-331.59"/>
<polygon fill="purple" stroke="purple" points="308.79,-328.76 299.3,-324.06 303.79,-333.66 308.79,-328.76"/>
</a>
</g>
</g>
<!-- RES_PENDING_CONDITIONAL_ANSWER&#45;&gt;RES_NEW_AWAIT_PULL_SLIP -->
<g id="edge21" class="edge link&#45;class">
<title>RES_PENDING_CONDITIONAL_ANSWER&#45;&gt;RES_NEW_AWAIT_PULL_SLIP</title>
<g id="a_edge21"><a xlink:title="supplierMarkConditionsAgreed&#45;saved">
<path fill="none" stroke="purple" d="M386.25,-431.84C375.5,-405.98 356.38,-360 356.38,-360 356.38,-360 338.15,-344.9 321.15,-330.82"/>
<polygon fill="purple" stroke="purple" points="322.92,-327.74 312.98,-324.06 318.45,-333.14 322.92,-327.74"/>
</a>
</g>
</g>
<!-- RES_PENDING_CONDITIONAL_ANSWER&#45;&gt;RES_AWAIT_PICKING -->
<g id="edge14" class="edge link&#45;class">
<title>RES_PENDING_CONDITIONAL_ANSWER&#45;&gt;RES_AWAIT_PICKING</title>
<g id="a_edge14"><a xlink:title="ISO18626Notification&#45;conditionsAgreed&#45;saved">
<path fill="none" stroke="purple" d="M411.88,-431.94C436.81,-416.45 475.38,-396 475.38,-396 475.38,-396 498.53,-307.26 517.82,-261.55"/>
<polygon fill="purple" stroke="purple" points="521.1,-262.79 521.99,-252.23 514.71,-259.93 521.1,-262.79"/>
</a>
</g>
</g>
<!-- RES_PENDING_CONDITIONAL_ANSWER&#45;&gt;RES_AWAIT_PICKING -->
<g id="edge20" class="edge link&#45;class">
<title>RES_PENDING_CONDITIONAL_ANSWER&#45;&gt;RES_AWAIT_PICKING</title>
<g id="a_edge20"><a xlink:title="supplierMarkConditionsAgreed&#45;saved">
<path fill="none" stroke="purple" d="M425.57,-431.94C454.81,-416.45 493.38,-396 493.38,-396 493.38,-396 516.34,-308.01 528.31,-262.12"/>
<polygon fill="purple" stroke="purple" points="531.75,-262.79 530.89,-252.23 524.98,-261.02 531.75,-262.79"/>
</a>
</g>
</g>
<!-- RES_IDLE -->
<g id="node7" class="node">
<title>RES_IDLE</title>
<polygon fill="none" stroke="black" points="311.07,-396 227.69,-396 227.69,-360 311.07,-360 311.07,-396"/>
<text text-anchor="middle" x="269.38" y="-373.8" font-family="arial" font-size="14.00">RES_IDLE</text>
</g>
<!-- RES_PENDING_CONDITIONAL_ANSWER&#45;&gt;RES_IDLE -->
<g id="edge13" class="edge link&#45;class">
<title>RES_PENDING_CONDITIONAL_ANSWER&#45;&gt;RES_IDLE</title>
<g id="a_edge13"><a xlink:title="ISO18626Notification&#45;conditionsAgreed&#45;saved">
<path fill="none" stroke="purple" d="M351.25,-431.88C333.12,-422.72 312.66,-411.34 296.51,-401.48"/>
<polygon fill="purple" stroke="purple" points="298.36,-398.51 288.02,-396.19 294.65,-404.45 298.36,-398.51"/>
</a>
</g>
</g>
<!-- RES_PENDING_CONDITIONAL_ANSWER&#45;&gt;RES_IDLE -->
<g id="edge19" class="edge link&#45;class">
<title>RES_PENDING_CONDITIONAL_ANSWER&#45;&gt;RES_IDLE</title>
<g id="a_edge19"><a xlink:title="supplierMarkConditionsAgreed&#45;saved">
<path fill="none" stroke="purple" d="M363.05,-431.88C346.68,-422.64 326.3,-411.13 308.73,-401.21"/>
<polygon fill="purple" stroke="purple" points="310.26,-398.06 299.83,-396.19 306.82,-404.15 310.26,-398.06"/>
</a>
</g>
</g>
<!-- RES_UNFILLED -->
<g id="node13" class="node">
<title>RES_UNFILLED</title>
<ellipse fill="none" stroke="red" cx="402.38" cy="-162" rx="80.61" ry="18"/>
<text text-anchor="middle" x="402.38" y="-157.8" font-family="arial" font-size="14.00">RES_UNFILLED</text>
</g>
<!-- RES_PENDING_CONDITIONAL_ANSWER&#45;&gt;RES_UNFILLED -->
<g id="edge23" class="edge link&#45;class">
<title>RES_PENDING_CONDITIONAL_ANSWER&#45;&gt;RES_UNFILLED</title>
<g id="a_edge23"><a xlink:title="supplierCannotSupply">
<path fill="none" stroke="red" d="M402.56,-431.88C420.91,-397.65 460.38,-324 460.38,-324 460.38,-324 460.38,-288 460.38,-288 460.38,-288 431.59,-225.94 414.57,-189.28"/>
<polygon fill="red" stroke="red" points="417.71,-187.72 410.32,-180.12 411.36,-190.66 417.71,-187.72"/>
</a>
</g>
</g>
<!-- RES_NEW_AWAIT_PULL_SLIP&#45;&gt;RES_CANCEL_REQUEST_RECEIVED -->
<g id="edge27" class="edge link&#45;class">
<title>RES_NEW_AWAIT_PULL_SLIP&#45;&gt;RES_CANCEL_REQUEST_RECEIVED</title>
<g id="a_edge27"><a xlink:title="ISO18626Cancel">
<path fill="none" stroke="purple" d="M271.75,-287.87C241.33,-262.6 184.31,-215.25 149.9,-186.68"/>
<polygon fill="purple" stroke="purple" points="152.01,-183.89 142.08,-180.19 147.54,-189.27 152.01,-183.89"/>
</a>
</g>
</g>
<!-- RES_NEW_AWAIT_PULL_SLIP&#45;&gt;RES_PENDING_CONDITIONAL_ANSWER -->
<g id="edge31" class="edge link&#45;class">
<title>RES_NEW_AWAIT_PULL_SLIP&#45;&gt;RES_PENDING_CONDITIONAL_ANSWER</title>
<g id="a_edge31"><a xlink:title="supplierAddCondition&#45;holding">
<path fill="none" stroke="purple" d="M326.67,-324.06C349.69,-339.55 374.38,-360 374.38,-360 374.38,-360 389.28,-395.83 395.57,-422.03"/>
<polygon fill="purple" stroke="purple" points="392.14,-422.74 397.56,-431.84 399,-421.34 392.14,-422.74"/>
</a>
</g>
</g>
<!-- RES_NEW_AWAIT_PULL_SLIP&#45;&gt;RES_NEW_AWAIT_PULL_SLIP -->
<g id="edge25" class="edge link&#45;class">
<title>RES_NEW_AWAIT_PULL_SLIP&#45;&gt;RES_NEW_AWAIT_PULL_SLIP</title>
<g id="a_edge25"><a xlink:title="ISO18626Notification">
<path fill="none" stroke="purple" d="M397,-309.73C407.95,-309 414.96,-307.76 414.96,-306 414.96,-304.87 412.09,-303.96 407.14,-303.26"/>
<polygon fill="purple" stroke="purple" points="407.3,-299.75 397,-302.27 406.62,-306.72 407.3,-299.75"/>
</a>
</g>
</g>
<!-- RES_NEW_AWAIT_PULL_SLIP&#45;&gt;RES_NEW_AWAIT_PULL_SLIP -->
<g id="edge29" class="edge link&#45;class">
<title>RES_NEW_AWAIT_PULL_SLIP&#45;&gt;RES_NEW_AWAIT_PULL_SLIP</title>
<g id="a_edge29"><a xlink:title="ISO18626StatusRequest">
<path fill="none" stroke="purple" d="M397.22,-314.63C418.09,-313.66 432.96,-310.78 432.96,-306 432.96,-302.04 422.76,-299.39 407.4,-298.04"/>
<polygon fill="purple" stroke="purple" points="407.43,-294.54 397.22,-297.37 406.97,-301.52 407.43,-294.54"/>
</a>
</g>
</g>
<!-- RES_NEW_AWAIT_PULL_SLIP&#45;&gt;RES_NEW_AWAIT_PULL_SLIP -->
<g id="edge30" class="edge link&#45;class">
<title>RES_NEW_AWAIT_PULL_SLIP&#45;&gt;RES_NEW_AWAIT_PULL_SLIP</title>
<g id="a_edge30"><a xlink:title="supplierAddCondition">
<path fill="none" stroke="purple" d="M397.23,-319.45C427.54,-318.96 450.96,-314.47 450.96,-306 450.96,-298.49 432.55,-294.11 407.24,-292.87"/>
<polygon fill="purple" stroke="purple" points="407.34,-289.37 397.23,-292.55 407.11,-296.37 407.34,-289.37"/>
</a>
</g>
</g>
<!-- RES_NEW_AWAIT_PULL_SLIP&#45;&gt;RES_AWAIT_PICKING -->
<g id="edge26" class="edge link&#45;class">
<title>RES_NEW_AWAIT_PULL_SLIP&#45;&gt;RES_AWAIT_PICKING</title>
<g id="a_edge26"><a xlink:title="supplierPrintPullSlip">
<path fill="none" stroke="purple" d="M351.51,-287.97C386.06,-278.01 429.83,-265.41 466,-254.99"/>
<polygon fill="purple" stroke="purple" points="467.34,-258.24 475.98,-252.11 465.4,-251.52 467.34,-258.24"/>
</a>
</g>
</g>
<!-- RES_NEW_AWAIT_PULL_SLIP&#45;&gt;RES_UNFILLED -->
<g id="edge28" class="edge link&#45;class">
<title>RES_NEW_AWAIT_PULL_SLIP&#45;&gt;RES_UNFILLED</title>
<g id="a_edge28"><a xlink:title="supplierCannotSupply">
<path fill="none" stroke="red" d="M305.65,-287.87C324.89,-263.03 360.67,-216.85 382.91,-188.14"/>
<polygon fill="red" stroke="red" points="385.71,-190.24 389.07,-180.19 380.17,-185.95 385.71,-190.24"/>
</a>
</g>
</g>
<!-- RES_AWAIT_PICKING&#45;&gt;RES_CANCEL_REQUEST_RECEIVED -->
<g id="edge38" class="edge link&#45;class">
<title>RES_AWAIT_PICKING&#45;&gt;RES_CANCEL_REQUEST_RECEIVED</title>
<g id="a_edge38"><a xlink:title="ISO18626Cancel">
<path fill="none" stroke="purple" d="M456.05,-219.59C392.61,-208.86 302.91,-193.69 232.35,-181.76"/>
<polygon fill="purple" stroke="purple" points="232.53,-178.24 222.08,-180.03 231.36,-185.15 232.53,-178.24"/>
</a>
</g>
</g>
<!-- RES_AWAIT_PICKING&#45;&gt;RES_AWAIT_SHIP -->
<g id="edge32" class="edge link&#45;class">
<title>RES_AWAIT_PICKING&#45;&gt;RES_AWAIT_SHIP</title>
<g id="a_edge32"><a xlink:title="supplierCheckInToReshare">
<path fill="none" stroke="purple" d="M539.89,-252.06C543.98,-267.55 549.38,-288 549.38,-288 549.38,-288 572.38,-432 572.38,-432 572.38,-432 572.38,-468 572.38,-468 572.38,-468 551.41,-483.65 532.26,-497.95"/>
<polygon fill="purple" stroke="purple" points="530.16,-495.15 524.24,-503.94 534.34,-500.76 530.16,-495.15"/>
</a>
</g>
</g>
<!-- RES_AWAIT_PICKING&#45;&gt;RES_AWAIT_SHIP -->
<g id="edge35" class="edge link&#45;class">
<title>RES_AWAIT_PICKING&#45;&gt;RES_AWAIT_SHIP</title>
<g id="a_edge35"><a xlink:title="supplierCheckInToReshareAndSupplierMarkShipped&#45;checkedIn">
<path fill="none" stroke="purple" d="M553.58,-252.06C561.98,-267.55 567.38,-288 567.38,-288 567.38,-288 590.38,-432 590.38,-432 590.38,-432 590.38,-468 590.38,-468 590.38,-468 568.85,-484.08 546.49,-498.52"/>
<polygon fill="purple" stroke="purple" points="544.5,-495.63 537.92,-503.94 548.25,-501.55 544.5,-495.63"/>
</a>
</g>
</g>
<!-- RES_AWAIT_PICKING&#45;&gt;RES_PENDING_CONDITIONAL_ANSWER -->
<g id="edge42" class="edge link&#45;class">
<title>RES_AWAIT_PICKING&#45;&gt;RES_PENDING_CONDITIONAL_ANSWER</title>
<g id="a_edge42"><a xlink:title="supplierAddCondition&#45;holding">
<path fill="none" stroke="purple" d="M539.78,-252.23C538.05,-293.76 511.38,-396 511.38,-396 511.38,-396 479.43,-412.94 448.39,-427.66"/>
<polygon fill="purple" stroke="purple" points="446.83,-424.53 439.26,-431.94 449.8,-430.87 446.83,-424.53"/>
</a>
</g>
</g>
<!-- RES_AWAIT_PICKING&#45;&gt;RES_AWAIT_PICKING -->
<g id="edge33" class="edge link&#45;class">
<title>RES_AWAIT_PICKING&#45;&gt;RES_AWAIT_PICKING</title>
<g id="a_edge33"><a xlink:title="supplierCheckInToReshare">
<path fill="none" stroke="purple" d="M614.86,-236.4C625.61,-235.99 632.77,-235.2 632.77,-234 632.77,-233.23 629.83,-232.63 624.89,-232.19"/>
<polygon fill="purple" stroke="purple" points="625.05,-228.69 614.86,-231.6 624.64,-235.68 625.05,-228.69"/>
</a>
</g>
</g>
<!-- RES_AWAIT_PICKING&#45;&gt;RES_AWAIT_PICKING -->
<g id="edge36" class="edge link&#45;class">
<title>RES_AWAIT_PICKING&#45;&gt;RES_AWAIT_PICKING</title>
<g id="a_edge36"><a xlink:title="supplierCheckInToReshareAndSupplierMarkShipped">
<path fill="none" stroke="purple" d="M614.66,-239.34C635.25,-239.02 650.77,-237.23 650.77,-234 650.77,-231.32 640.12,-229.64 624.77,-228.95"/>
<polygon fill="purple" stroke="purple" points="624.76,-225.45 614.66,-228.66 624.55,-232.45 624.76,-225.45"/>
</a>
</g>
</g>
<!-- RES_AWAIT_PICKING&#45;&gt;RES_AWAIT_PICKING -->
<g id="edge37" class="edge link&#45;class">
<title>RES_AWAIT_PICKING&#45;&gt;RES_AWAIT_PICKING</title>
<g id="a_edge37"><a xlink:title="ISO18626Notification">
<path fill="none" stroke="purple" d="M614.81,-242.08C644.4,-242.35 668.77,-239.65 668.77,-234 668.77,-229.01 649.78,-226.32 624.97,-225.95"/>
<polygon fill="purple" stroke="purple" points="624.82,-222.45 614.81,-225.92 624.8,-229.45 624.82,-222.45"/>
</a>
</g>
</g>
<!-- RES_AWAIT_PICKING&#45;&gt;RES_AWAIT_PICKING -->
<g id="edge40" class="edge link&#45;class">
<title>RES_AWAIT_PICKING&#45;&gt;RES_AWAIT_PICKING</title>
<g id="a_edge40"><a xlink:title="ISO18626StatusRequest">
<path fill="none" stroke="purple" d="M614.82,-244.54C653.04,-245.84 686.77,-242.32 686.77,-234 686.77,-226.42 658.83,-222.83 624.99,-223.23"/>
<polygon fill="purple" stroke="purple" points="624.74,-219.73 614.82,-223.46 624.9,-226.73 624.74,-219.73"/>
</a>
</g>
</g>
<!-- RES_AWAIT_PICKING&#45;&gt;RES_AWAIT_PICKING -->
<g id="edge41" class="edge link&#45;class">
<title>RES_AWAIT_PICKING&#45;&gt;RES_AWAIT_PICKING</title>
<g id="a_edge41"><a xlink:title="supplierAddCondition">
<path fill="none" stroke="purple" d="M614.67,-246.71C661.21,-249.42 704.77,-245.18 704.77,-234 704.77,-223.63 667.28,-219.23 624.7,-220.81"/>
<polygon fill="purple" stroke="purple" points="624.49,-217.32 614.67,-221.29 624.82,-224.31 624.49,-217.32"/>
</a>
</g>
</g>
<!-- RES_AWAIT_PICKING&#45;&gt;RES_ITEM_SHIPPED -->
<g id="edge34" class="edge link&#45;class">
<title>RES_AWAIT_PICKING&#45;&gt;RES_ITEM_SHIPPED</title>
<g id="a_edge34"><a xlink:title="supplierCheckInToReshareAndSupplierMarkShipped">
<path fill="none" stroke="purple" d="M564.49,-215.88C580.05,-206.72 599.4,-195.34 616.16,-185.48"/>
<polygon fill="purple" stroke="purple" points="618.31,-188.28 625.16,-180.19 614.76,-182.24 618.31,-188.28"/>
</a>
</g>
</g>
<!-- RES_AWAIT_PICKING&#45;&gt;RES_UNFILLED -->
<g id="edge39" class="edge link&#45;class">
<title>RES_AWAIT_PICKING&#45;&gt;RES_UNFILLED</title>
<g id="a_edge39"><a xlink:title="supplierCannotSupply">
<path fill="none" stroke="red" d="M502.85,-215.88C484.26,-206.09 460.83,-193.76 441.27,-183.47"/>
<polygon fill="red" stroke="red" points="442.79,-180.31 432.31,-178.75 439.53,-186.5 442.79,-180.31"/>
</a>
</g>
</g>
<!-- RES_IDLE&#45;&gt;RES_CANCEL_REQUEST_RECEIVED -->
<g id="edge44" class="edge link&#45;class">
<title>RES_IDLE&#45;&gt;RES_CANCEL_REQUEST_RECEIVED</title>
<g id="a_edge44"><a xlink:title="ISO18626Cancel">
<path fill="none" stroke="purple" d="M238.8,-359.94C211.03,-344.45 174.38,-324 174.38,-324 174.38,-324 145.29,-235.64 130.21,-189.83"/>
<polygon fill="purple" stroke="purple" points="133.5,-188.63 127.05,-180.23 126.86,-190.82 133.5,-188.63"/>
</a>
</g>
</g>
<!-- RES_IDLE&#45;&gt;RES_PENDING_CONDITIONAL_ANSWER -->
<g id="edge48" class="edge link&#45;class">
<title>RES_IDLE&#45;&gt;RES_PENDING_CONDITIONAL_ANSWER</title>
<g id="a_edge48"><a xlink:title="supplierConditionalSupply&#45;holding">
<path fill="none" stroke="purple" d="M311.16,-395.95C329.39,-405.14 350.04,-416.62 366.3,-426.54"/>
<polygon fill="purple" stroke="purple" points="364.51,-429.55 374.84,-431.88 368.21,-423.61 364.51,-429.55"/>
</a>
</g>
</g>
<!-- RES_IDLE&#45;&gt;RES_NEW_AWAIT_PULL_SLIP -->
<g id="edge46" class="edge link&#45;class">
<title>RES_IDLE&#45;&gt;RES_NEW_AWAIT_PULL_SLIP</title>
<g id="a_edge46"><a xlink:title="respondYes">
<path fill="none" stroke="purple" d="M269.15,-359.7C270.93,-351.81 273.83,-342.3 277.09,-333.55"/>
<polygon fill="purple" stroke="purple" points="280.4,-334.69 280.87,-324.1 273.9,-332.09 280.4,-334.69"/>
</a>
</g>
</g>
<!-- RES_IDLE&#45;&gt;RES_NEW_AWAIT_PULL_SLIP -->
<g id="edge47" class="edge link&#45;class">
<title>RES_IDLE&#45;&gt;RES_NEW_AWAIT_PULL_SLIP</title>
<g id="a_edge47"><a xlink:title="supplierConditionalSupply">
<path fill="none" stroke="purple" d="M280.98,-359.7C284.35,-351.9 287.66,-342.51 290.15,-333.83"/>
<polygon fill="purple" stroke="purple" points="293.55,-334.66 292.66,-324.1 286.77,-332.91 293.55,-334.66"/>
</a>
</g>
</g>
<!-- RES_IDLE&#45;&gt;RES_IDLE -->
<g id="edge43" class="edge link&#45;class">
<title>RES_IDLE&#45;&gt;RES_IDLE</title>
<g id="a_edge43"><a xlink:title="ISO18626Notification">
<path fill="none" stroke="purple" d="M311.15,-384.64C321.37,-384.15 328.98,-381.94 328.98,-378 328.98,-375.54 326,-373.75 321.28,-372.64"/>
<polygon fill="purple" stroke="purple" points="321.51,-369.14 311.15,-371.36 320.63,-376.08 321.51,-369.14"/>
</a>
</g>
</g>
<!-- RES_IDLE&#45;&gt;RES_IDLE -->
<g id="edge49" class="edge link&#45;class">
<title>RES_IDLE&#45;&gt;RES_IDLE</title>
<g id="a_edge49"><a xlink:title="ISO18626StatusRequest">
<path fill="none" stroke="purple" d="M311.29,-391.26C330.38,-392.62 346.98,-388.2 346.98,-378 346.98,-369.72 336.02,-365.24 321.67,-364.59"/>
<polygon fill="purple" stroke="purple" points="321.24,-361.09 311.29,-364.74 321.34,-368.09 321.24,-361.09"/>
</a>
</g>
</g>
<!-- RES_IDLE&#45;&gt;RES_UNFILLED -->
<g id="edge45" class="edge link&#45;class">
<title>RES_IDLE&#45;&gt;RES_UNFILLED</title>
<g id="a_edge45"><a xlink:title="supplierCannotSupply">
<path fill="none" stroke="red" d="M240.09,-359.94C213.49,-344.45 178.38,-324 178.38,-324 178.38,-324 178.38,-288 178.38,-288 178.38,-288 300.73,-219.73 364.58,-184.09"/>
<polygon fill="red" stroke="red" points="366.53,-187.02 373.56,-179.09 363.12,-180.9 366.53,-187.02"/>
</a>
</g>
</g>
<!-- RES_HOLD_PLACED -->
<g id="node8" class="node">
<title>RES_HOLD_PLACED</title>
<polygon fill="none" stroke="black" points="800.36,-540 658.4,-540 658.4,-504 800.36,-504 800.36,-540"/>
<text text-anchor="middle" x="729.38" y="-517.8" font-family="arial" font-size="14.00">RES_HOLD_PLACED</text>
</g>
<!-- RES_HOLD_PLACED&#45;&gt;RES_HOLD_PLACED -->
<g id="edge50" class="edge link&#45;class">
<title>RES_HOLD_PLACED&#45;&gt;RES_HOLD_PLACED</title>
<g id="a_edge50"><a xlink:title="ISO18626Notification">
<path fill="none" stroke="purple" d="M800.6,-528.12C811.2,-527.17 818.37,-525.13 818.37,-522 818.37,-520 815.43,-518.44 810.53,-517.33"/>
<polygon fill="purple" stroke="purple" points="811,-513.86 800.6,-515.88 809.99,-520.78 811,-513.86"/>
</a>
</g>
</g>
<!-- RES_HOLD_PLACED&#45;&gt;RES_HOLD_PLACED -->
<g id="edge51" class="edge link&#45;class">
<title>RES_HOLD_PLACED&#45;&gt;RES_HOLD_PLACED</title>
<g id="a_edge51"><a xlink:title="ISO18626StatusRequest">
<path fill="none" stroke="purple" d="M800.37,-535.45C820.7,-534.92 836.37,-530.44 836.37,-522 836.37,-515.01 825.62,-510.74 810.39,-509.18"/>
<polygon fill="purple" stroke="purple" points="810.57,-505.68 800.37,-508.55 810.14,-512.67 810.57,-505.68"/>
</a>
</g>
</g>
<!-- RES_ITEM_SHIPPED&#45;&gt;RES_ITEM_SHIPPED -->
<g id="edge52" class="edge link&#45;class">
<title>RES_ITEM_SHIPPED&#45;&gt;RES_ITEM_SHIPPED</title>
<g id="a_edge52"><a xlink:title="ISO18626Received">
<path fill="none" stroke="purple" d="M729.7,-166.04C740.39,-165.39 747.57,-164.04 747.57,-162 747.57,-160.69 744.63,-159.67 739.7,-158.93"/>
<polygon fill="purple" stroke="purple" points="739.99,-155.45 729.7,-157.96 739.32,-162.41 739.99,-155.45"/>
</a>
</g>
</g>
<!-- RES_ITEM_SHIPPED&#45;&gt;RES_ITEM_SHIPPED -->
<g id="edge54" class="edge link&#45;class">
<title>RES_ITEM_SHIPPED&#45;&gt;RES_ITEM_SHIPPED</title>
<g id="a_edge54"><a xlink:title="ISO18626Notification">
<path fill="none" stroke="purple" d="M729.73,-170.93C750.09,-170.46 765.57,-167.48 765.57,-162 765.57,-157.46 754.95,-154.64 739.74,-153.53"/>
<polygon fill="purple" stroke="purple" points="739.89,-150.03 729.73,-153.07 739.56,-157.03 739.89,-150.03"/>
</a>
</g>
</g>
<!-- RES_ITEM_SHIPPED&#45;&gt;RES_ITEM_SHIPPED -->
<g id="edge55" class="edge link&#45;class">
<title>RES_ITEM_SHIPPED&#45;&gt;RES_ITEM_SHIPPED</title>
<g id="a_edge55"><a xlink:title="ISO18626StatusRequest">
<path fill="none" stroke="purple" d="M729.7,-175.44C759.08,-176.08 783.57,-171.6 783.57,-162 783.57,-153.53 764.49,-149.04 739.79,-148.55"/>
<polygon fill="purple" stroke="purple" points="739.69,-145.05 729.7,-148.56 739.7,-152.05 739.69,-145.05"/>
</a>
</g>
</g>
<!-- RES_ITEM_RETURNED -->
<g id="node10" class="node">
<title>RES_ITEM_RETURNED</title>
<polygon fill="none" stroke="black" points="733.66,-108 575.1,-108 575.1,-72 733.66,-72 733.66,-108"/>
<text text-anchor="middle" x="654.38" y="-85.8" font-family="arial" font-size="14.00">RES_ITEM_RETURNED</text>
</g>
<!-- RES_ITEM_SHIPPED&#45;&gt;RES_ITEM_RETURNED -->
<g id="edge53" class="edge link&#45;class">
<title>RES_ITEM_SHIPPED&#45;&gt;RES_ITEM_RETURNED</title>
<g id="a_edge53"><a xlink:title="ISO18626ShippedReturn">
<path fill="none" stroke="purple" d="M654.38,-143.7C654.38,-135.98 654.38,-126.71 654.38,-118.11"/>
<polygon fill="purple" stroke="purple" points="657.88,-118.1 654.38,-108.1 650.88,-118.1 657.88,-118.1"/>
</a>
</g>
</g>
<!-- RES_ITEM_RETURNED&#45;&gt;RES_ITEM_RETURNED -->
<g id="edge57" class="edge link&#45;class">
<title>RES_ITEM_RETURNED&#45;&gt;RES_ITEM_RETURNED</title>
<g id="a_edge57"><a xlink:title="ISO18626Notification">
<path fill="none" stroke="purple" d="M733.86,-95.99C744.61,-94.98 751.77,-92.99 751.77,-90 751.77,-88.09 748.83,-86.58 743.89,-85.48"/>
<polygon fill="purple" stroke="purple" points="744.26,-82 733.86,-84.01 743.25,-88.92 744.26,-82"/>
</a>
</g>
</g>
<!-- RES_ITEM_RETURNED&#45;&gt;RES_ITEM_RETURNED -->
<g id="edge58" class="edge link&#45;class">
<title>RES_ITEM_RETURNED&#45;&gt;RES_ITEM_RETURNED</title>
<g id="a_edge58"><a xlink:title="ISO18626StatusRequest">
<path fill="none" stroke="purple" d="M733.66,-103.36C754.25,-102.54 769.77,-98.09 769.77,-90 769.77,-83.3 759.12,-79.1 743.77,-77.38"/>
<polygon fill="purple" stroke="purple" points="743.89,-73.88 733.66,-76.64 743.37,-80.86 743.89,-73.88"/>
</a>
</g>
</g>
<!-- RES_COMPLETE -->
<g id="node14" class="node">
<title>RES_COMPLETE</title>
<polygon fill="none" stroke="red" points="618.66,-36 502.1,-36 502.1,0 618.66,0 618.66,-36"/>
<text text-anchor="middle" x="560.38" y="-13.8" font-family="arial" font-size="14.00">RES_COMPLETE</text>
</g>
<!-- RES_ITEM_RETURNED&#45;&gt;RES_COMPLETE -->
<g id="edge56" class="edge link&#45;class">
<title>RES_ITEM_RETURNED&#45;&gt;RES_COMPLETE</title>
<g id="a_edge56"><a xlink:title="supplierCheckOutOfReshare">
<path fill="none" stroke="red" d="M631.15,-71.7C619.19,-62.8 604.46,-51.82 591.53,-42.2"/>
<polygon fill="red" stroke="red" points="593.46,-39.27 583.35,-36.1 589.28,-44.88 593.46,-39.27"/>
</a>
</g>
</g>
<!-- RES_ERROR -->
<g id="node11" class="node">
<title>RES_ERROR</title>
<polygon fill="none" stroke="black" points="945.97,-540 854.79,-540 854.79,-504 945.97,-504 945.97,-540"/>
<text text-anchor="middle" x="900.38" y="-517.8" font-family="arial" font-size="14.00">RES_ERROR</text>
</g>
<!-- RES_ERROR&#45;&gt;RES_ERROR -->
<g id="edge59" class="edge link&#45;class">
<title>RES_ERROR&#45;&gt;RES_ERROR</title>
<g id="a_edge59"><a xlink:title="ISO18626Notification">
<path fill="none" stroke="purple" d="M946.26,-528.59C956.61,-527.99 964.17,-525.8 964.17,-522 964.17,-519.63 961.22,-517.88 956.47,-516.76"/>
<polygon fill="purple" stroke="purple" points="956.63,-513.25 946.26,-515.41 955.72,-520.19 956.63,-513.25"/>
</a>
</g>
</g>
<!-- RES_ERROR&#45;&gt;RES_ERROR -->
<g id="edge60" class="edge link&#45;class">
<title>RES_ERROR&#45;&gt;RES_ERROR</title>
<g id="a_edge60"><a xlink:title="ISO18626StatusRequest">
<path fill="none" stroke="purple" d="M946.22,-535.36C965.63,-536.37 982.17,-531.91 982.17,-522 982.17,-513.87 971.04,-509.41 956.32,-508.63"/>
<polygon fill="purple" stroke="purple" points="956.21,-505.13 946.22,-508.64 956.22,-512.13 956.21,-505.13"/>
</a>
</g>
</g>
<!-- RES_OVERDUE -->
<g id="node12" class="node">
<title>RES_OVERDUE</title>
<polygon fill="none" stroke="black" points="520.77,-108 412,-108 412,-72 520.77,-72 520.77,-108"/>
<text text-anchor="middle" x="466.38" y="-85.8" font-family="arial" font-size="14.00">RES_OVERDUE</text>
</g>
<!-- RES_OVERDUE&#45;&gt;RES_OVERDUE -->
<g id="edge62" class="edge link&#45;class">
<title>RES_OVERDUE&#45;&gt;RES_OVERDUE</title>
<g id="a_edge62"><a xlink:title="ISO18626Notification">
<path fill="none" stroke="purple" d="M520.85,-96.43C531.23,-95.66 538.57,-93.52 538.57,-90 538.57,-87.8 535.7,-86.14 531.02,-85.02"/>
<polygon fill="purple" stroke="purple" points="531.24,-81.51 520.85,-83.57 530.25,-88.44 531.24,-81.51"/>
</a>
</g>
</g>
<!-- RES_OVERDUE&#45;&gt;RES_OVERDUE -->
<g id="edge63" class="edge link&#45;class">
<title>RES_OVERDUE&#45;&gt;RES_OVERDUE</title>
<g id="a_edge63"><a xlink:title="ISO18626StatusRequest">
<path fill="none" stroke="purple" d="M520.98,-103.49C540.59,-103.78 556.57,-99.28 556.57,-90 556.57,-82.39 545.82,-77.99 531.13,-76.82"/>
<polygon fill="purple" stroke="purple" points="531.08,-73.32 520.98,-76.51 530.87,-80.31 531.08,-73.32"/>
</a>
</g>
</g>
<!-- RES_OVERDUE&#45;&gt;RES_COMPLETE -->
<g id="edge61" class="edge link&#45;class">
<title>RES_OVERDUE&#45;&gt;RES_COMPLETE</title>
<g id="a_edge61"><a xlink:title="supplierCheckOutOfReshare">
<path fill="none" stroke="red" d="M489.62,-71.7C501.57,-62.8 516.3,-51.82 529.23,-42.2"/>
<polygon fill="red" stroke="red" points="531.48,-44.88 537.41,-36.1 527.3,-39.27 531.48,-44.88"/>
</a>
</g>
</g>
<!-- RES_COMPLETE&#45;&gt;RES_COMPLETE -->
<g id="edge64" class="edge link&#45;class">
<title>RES_COMPLETE&#45;&gt;RES_COMPLETE</title>
<g id="a_edge64"><a xlink:title="ISO18626Notification">
<path fill="none" stroke="red" d="M618.67,-30.76C629.31,-29.14 636.77,-24.89 636.77,-18 636.77,-13.48 633.56,-10.09 628.34,-7.84"/>
<polygon fill="red" stroke="red" points="629.23,-4.46 618.67,-5.24 627.42,-11.22 629.23,-4.46"/>
</a>
</g>
</g>
</g>
</svg>
